# File created by Blade
# Date/Time:  Thu Sep 25 15:41:58 2014
# Frame Rate: 120.000 fps
#------------------------------------------------------
:FULLY-SPECIFIED
:DEGREES
589
root -19.853085 36.418748 -1.383818 193.407351 -75.946084 0.085766
Spine -30.147253 9.060573 1.740869
Head -91.280510 4.953460 0.419928
LeftShoulder -12.851181 -1.727525 27.160718
LeftArm 106.143405 -60.891799 -70.917911
LeftForeArm 9.264095 -0.000000 32.969717
LeftHand -42.179005 0.000000 98.083271
LeftHandThumb1 -26.253704 0.000000 33.147579
RightShoulder -19.435502 4.285302 -27.176336
RightArm 122.962321 43.346981 75.364772
RightForeArm -16.694252 -0.000000 29.607257
RightHand -7.114102 -0.000000 -78.655244
RightHandThumb1 -24.326973 -0.000000 -32.862282
LeftUpLeg -2.443353 36.467242 61.227953
LeftLeg -4.162135 -0.000000 0.000000
LeftFoot 41.179792 26.224788 -13.462470
LeftToeBase 21.070802 -0.000000 -0.000000
RightUpLeg 2.002205 -21.779002 -52.168021
RightLeg -2.676269 -0.000000 0.000000
RightFoot 46.623799 7.598600 1.032756
RightToeBase 14.461757 -0.000000 -0.000000
590
root -19.820015 36.410438 -1.378362 193.345901 -75.819607 -0.044886
Spine -30.062941 9.150841 1.790136
Head -91.212261 4.757271 0.388326
LeftShoulder -12.846185 -1.766677 27.016571
LeftArm 105.691603 -60.889437 -70.287312
LeftForeArm 9.145423 -0.000000 32.862018
LeftHand -42.129141 -0.000000 98.195130
LeftHandThumb1 -26.253704 0.000000 33.147579
RightShoulder -19.474045 4.231042 -27.255913
RightArm 122.876544 43.167812 75.300548
RightForeArm -16.642045 -0.000000 29.600913
RightHand -7.049170 -0.000000 -78.778226
RightHandThumb1 -24.326973 -0.000000 -32.862282
LeftUpLeg -2.340745 36.387421 61.496830
LeftLeg -4.267970 -0.000000 0.000000
LeftFoot 41.107520 26.305811 -13.501986
LeftToeBase 21.037774 -0.000000 -0.000000
RightUpLeg 2.018576 -22.042576 -52.650987
RightLeg -2.719508 -0.000000 0.000000
RightFoot 46.514943 7.535730 0.874375
RightToeBase 14.698644 -0.000000 -0.000000
591
root -19.787108 36.404625 -1.374770 193.029352 -75.730488 0.111435
Spine -30.083757 9.307897 1.969660
Head -90.922328 4.413883 0.210996
LeftShoulder -12.615031 -1.777216 26.741963
LeftArm 105.137810 -61.040772 -69.471487
LeftForeArm 9.019515 -0.000000 32.652139
LeftHand -42.149468 -0.000000 98.269080
LeftHandThumb1 -26.253704 0.000000 33.147579
RightShoulder -19.490951 3.933887 -27.423345
RightArm 123.022160 42.990398 75.420143
RightForeArm -16.679373 -0.000000 29.516887
RightHand -7.043873 0.000000 -78.903262
RightHandThumb1 -24.326973 -0.000000 -32.862282
LeftUpLeg -2.293731 36.452847 61.845478
LeftLeg -4.330670 -0.000000 0.000000
LeftFoot 41.052369 26.347746 -13.479281
LeftToeBase 21.173755 -0.000000 -0.000000
RightUpLeg 2.053905 -22.385394 -53.077288
RightLeg -2.759604 -0.000000 0.000000
RightFoot 46.526517 7.570566 0.638767
RightToeBase 14.659374 -0.000000 -0.000000
592
root -19.745071 36.396484 -1.372856 192.735735 -75.599610 0.234483
Spine -30.097964 9.428228 2.105121
Head -90.676222 4.320923 0.071558
LeftShoulder -12.602379 -1.691820 26.557475
LeftArm 104.985304 -60.968049 -69.075453
LeftForeArm 8.835826 0.000000 32.340960
LeftHand -41.427171 -0.000000 98.448133
LeftHandThumb1 -26.253704 0.000000 33.147579
RightShoulder -19.459631 3.941562 -27.548187
RightArm 122.698051 42.973570 74.991308
RightForeArm -16.444767 -0.000000 29.341050
RightHand -7.044377 0.000000 -79.094622
RightHandThumb1 -24.326973 -0.000000 -32.862282
LeftUpLeg -2.175316 36.774238 62.208557
LeftLeg -4.420623 -0.000000 0.000000
LeftFoot 41.011468 26.292014 -13.470413
LeftToeBase 21.255842 -0.000000 -0.000000
RightUpLeg 2.087880 -22.692223 -53.525911
RightLeg -2.806880 -0.000000 0.000000
RightFoot 46.443928 7.570309 0.584833
RightToeBase 14.741361 -0.000000 -0.000000
593
root -19.698074 36.386570 -1.369564 192.632333 -75.464863 0.156591
Spine -30.097819 9.494463 2.151203
Head -90.519268 4.368843 0.004552
LeftShoulder -12.599521 -1.625354 26.396170
LeftArm 104.800492 -60.941670 -68.590071
LeftForeArm 8.924720 -0.000000 32.152729
LeftHand -41.979591 -0.000000 98.382400
LeftHandThumb1 -26.253704 0.000000 33.147579
RightShoulder -19.431977 4.028269 -27.591824
RightArm 122.288277 43.006060 74.414139
RightForeArm -16.101299 -0.000000 29.120968
RightHand -7.011143 0.000000 -79.329800
RightHandThumb1 -24.326973 -0.000000 -32.862282
LeftUpLeg -2.039020 37.240996 62.521829
LeftLeg -4.557251 -0.000000 0.000000
LeftFoot 41.042477 26.138515 -13.400010
LeftToeBase 21.270065 -0.000000 -0.000000
RightUpLeg 2.139796 -22.984856 -54.032243
RightLeg -2.849140 -0.000000 0.000000
RightFoot 46.362785 7.593975 0.439157
RightToeBase 14.721427 -0.000000 -0.000000
594
root -19.649190 36.376365 -1.369920 192.364629 -75.342755 0.250902
Spine -30.117336 9.584277 2.258919
Head -90.363387 4.359772 -0.054536
LeftShoulder -12.537394 -1.657960 26.205952
LeftArm 104.312890 -60.961485 -67.791102
LeftForeArm 8.636757 0.000000 31.860079
LeftHand -41.375000 -0.000000 98.485682
LeftHandThumb1 -26.253704 0.000000 33.147579
RightShoulder -19.448433 3.904962 -27.594804
RightArm 122.222308 42.956198 74.122755
RightForeArm -15.871177 -0.000000 28.894404
RightHand -6.999167 -0.000000 -79.411465
RightHandThumb1 -24.326973 -0.000000 -32.862282
LeftUpLeg -1.912060 37.730954 62.880052
LeftLeg -4.688385 -0.000000 0.000000
LeftFoot 41.042340 26.065767 -13.306359
LeftToeBase 21.206365 -0.000000 -0.000000
RightUpLeg 2.200383 -23.287693 -54.488137
RightLeg -2.909316 -0.000000 0.000000
RightFoot 46.420195 7.672700 0.300064
RightToeBase 14.833224 -0.000000 -0.000000
595
root -19.599123 36.364125 -1.368772 192.291664 -75.208234 0.142868
Spine -30.123675 9.638674 2.273114
Head -90.295924 4.429615 -0.043734
LeftShoulder -12.610157 -1.445674 26.191422
LeftArm 104.459439 -60.821106 -67.967495
LeftForeArm 8.964682 -0.000000 31.990786
LeftHand -42.071092 0.000000 98.407837
LeftHandThumb1 -26.253704 0.000000 33.147579
RightShoulder -19.435778 3.827376 -27.510890
RightArm 122.154874 42.917240 73.832029
RightForeArm -15.699413 -0.000000 28.708637
RightHand -6.992300 0.000000 -79.424368
RightHandThumb1 -24.326973 -0.000000 -32.862282
LeftUpLeg -1.786197 38.289523 63.191513
LeftLeg -4.802429 -0.000000 0.000000
LeftFoot 41.057124 25.863217 -13.218139
LeftToeBase 21.123421 -0.000000 -0.000000
RightUpLeg 2.255047 -23.570362 -54.989861
RightLeg -2.945836 -0.000000 0.000000
RightFoot 46.413493 7.800833 0.137072
RightToeBase 14.925472 -0.000000 -0.000000
596
root -19.539863 36.351395 -1.370091 192.101366 -75.059992 0.123016
Spine -30.102580 9.721245 2.318771
Head -90.274877 4.423373 0.018504
LeftShoulder -12.647641 -1.447510 26.185241
LeftArm 103.964189 -60.719716 -67.489337
LeftForeArm 8.858663 0.000000 32.079403
LeftHand -42.142546 -0.000000 98.383229
LeftHandThumb1 -26.253704 0.000000 33.147579
RightShoulder -19.409573 3.792609 -27.469985
RightArm 122.032913 42.844028 73.582786
RightForeArm -15.556709 0.000000 28.589038
RightHand -6.924576 0.000000 -79.415091
RightHandThumb1 -24.326973 -0.000000 -32.862282
LeftUpLeg -1.586461 38.899208 63.541396
LeftLeg -4.981517 -0.000000 0.000000
LeftFoot 41.092088 25.623727 -13.109009
LeftToeBase 21.093301 -0.000000 -0.000000
RightUpLeg 2.359437 -23.839736 -55.474053
RightLeg -3.037106 -0.000000 0.000000
RightFoot 46.449739 7.874522 0.200093
RightToeBase 14.805962 -0.000000 -0.000000
597
root -19.487389 36.336483 -1.371895 191.891791 -74.994153 0.153654
Spine -30.102831 9.743968 2.398601
Head -90.313789 4.376859 0.074782
LeftShoulder -12.701129 -1.203129 26.128242
LeftArm 103.883424 -60.695712 -67.422173
LeftForeArm 8.844755 -0.000000 32.242137
LeftHand -42.223617 -0.000000 98.375592
LeftHandThumb1 -26.253704 0.000000 33.147579
RightShoulder -19.327903 3.788849 -27.441454
RightArm 121.897449 42.781060 73.373972
RightForeArm -15.503042 -0.000000 28.561408
RightHand -6.938124 -0.000000 -79.448536
RightHandThumb1 -24.326973 -0.000000 -32.862282
LeftUpLeg -1.547222 39.392478 63.841309
LeftLeg -5.102168 -0.000000 0.000000
LeftFoot 41.077295 25.435431 -13.029292
LeftToeBase 20.973469 -0.000000 -0.000000
RightUpLeg 2.454007 -23.951485 -55.904620
RightLeg -3.003514 -0.000000 0.000000
RightFoot 46.316965 7.791861 0.083374
RightToeBase 14.733486 -0.000000 -0.000000
598
root -19.430352 36.319147 -1.375448 191.696424 -74.909256 0.183760
Spine -30.154031 9.812316 2.450796
Head -90.336873 4.255233 0.109468
LeftShoulder -12.655541 -1.010520 26.019355
LeftArm 103.494812 -60.803519 -66.903108
LeftForeArm 8.620015 -0.000000 32.314238
LeftHand -42.236159 -0.000000 98.399773
LeftHandThumb1 -26.253704 0.000000 33.147579
RightShoulder -19.239560 3.711356 -27.412704
RightArm 121.787576 42.718536 73.239202
RightForeArm -15.553357 0.000000 28.591740
RightHand -6.912786 -0.000000 -79.361628
RightHandThumb1 -24.326973 -0.000000 -32.862282
LeftUpLeg -1.526312 39.844306 64.131907
LeftLeg -5.161756 -0.000000 0.000000
LeftFoot 41.033852 25.232350 -12.965472
LeftToeBase 20.770638 -0.000000 -0.000000
RightUpLeg 2.542171 -24.183247 -56.300315
RightLeg -3.022255 -0.000000 0.000000
RightFoot 46.267807 7.854398 -0.151492
RightToeBase 14.826291 -0.000000 -0.000000
599
root -19.370377 36.297840 -1.379357 191.508825 -74.882970 0.171766
Spine -30.144453 9.837783 2.497830
Head -90.463568 4.251396 0.023165
LeftShoulder -12.659210 -0.885382 25.874727
LeftArm 103.162875 -60.830128 -66.385629
LeftForeArm 8.487181 -0.000000 32.374215
LeftHand -42.346321 0.000000 98.424205
LeftHandThumb1 -26.253704 0.000000 33.147579
RightShoulder -19.171070 3.678187 -27.350156
RightArm 121.688365 42.636624 73.108711
RightForeArm -15.635172 -0.000000 28.671083
RightHand -6.910947 -0.000000 -79.359891
RightHandThumb1 -24.326973 -0.000000 -32.862282
LeftUpLeg -1.515710 40.375388 64.347956
LeftLeg -5.373560 -0.000000 0.000000
LeftFoot 41.069929 24.911696 -12.898113
LeftToeBase 20.819782 -0.000000 -0.000000
RightUpLeg 2.725488 -24.468448 -56.683392
RightLeg -3.027483 -0.000000 0.000000
RightFoot 45.974061 7.963840 -0.365694
RightToeBase 15.166025 -0.000000 -0.000000
600
root -19.310831 36.276932 -1.385087 191.258327 -74.903838 0.233627
Spine -30.134497 9.864385 2.565814
Head -90.536009 4.182674 -0.091718
LeftShoulder -12.654298 -0.829370 25.730032
LeftArm 102.767573 -60.823719 -65.794903
LeftForeArm 8.166430 0.000000 32.305316
LeftHand -41.667470 -0.000000 98.630665
LeftHandThumb1 -26.253704 0.000000 33.147579
RightShoulder -19.133681 3.672283 -27.321920
RightArm 121.576587 42.521964 73.001966
RightForeArm -15.716503 -0.000000 28.765228
RightHand -6.920574 0.000000 -79.348444
RightHandThumb1 -24.326973 -0.000000 -32.862282
LeftUpLeg -1.601317 40.709960 64.540878
LeftLeg -5.530370 -0.000000 0.000000
LeftFoot 41.063361 24.708449 -12.817375
LeftToeBase 20.796556 -0.000000 -0.000000
RightUpLeg 2.965515 -24.924554 -57.030097
RightLeg -3.123297 -0.000000 0.000000
RightFoot 45.919661 8.097679 -0.545903
RightToeBase 15.266079 -0.000000 -0.000000
